<?xml version="1.0" standalone="no"?>
<!DOCTYPE svg PUBLIC "-//W3C//DTD SVG 20010904//EN"
 "http://www.w3.org/TR/2001/REC-SVG-20010904/DTD/svg10.dtd">
<svg version="1.0" xmlns="http://www.w3.org/2000/svg"
 width="135.000000pt" height="135.000000pt" viewBox="0 0 135.000000 135.000000"
 preserveAspectRatio="xMidYMid meet">
<metadata>
Created by potrace 1.11, written by Peter Selinger 2001-2013
</metadata>
<g transform="translate(0.000000,135.000000) scale(0.100000,-0.100000)"
fill="#000000" stroke="none">
<path d="M880 1134 c-16 -41 -13 -44 54 -44 63 0 64 1 75 31 6 18 11 34 11 35
0 2 -29 4 -65 4 -61 0 -66 -2 -75 -26z"/>
<path d="M125 1048 c-2 -7 -29 -92 -61 -188 -31 -96 -59 -181 -61 -187 -4 -10
13 -13 65 -13 70 0 70 0 77 30 6 29 8 30 65 30 56 0 58 -1 64 -30 5 -30 6 -30
75 -30 l69 0 -18 58 c-10 31 -39 121 -65 200 l-46 142 -80 0 c-55 0 -81 -4
-84 -12z m96 -110 c1 -25 3 -37 14 -80 7 -26 5 -28 -25 -28 -31 0 -32 1 -26
33 4 17 10 47 13 65 6 37 23 43 24 10z"/>
<path d="M370 1054 c0 -4 28 -94 62 -200 l63 -194 77 0 77 0 62 193 c34 105
63 195 66 200 2 4 -27 7 -65 7 l-69 0 -36 -117 c-19 -65 -37 -111 -40 -103 -3
8 -20 61 -37 118 l-31 102 -64 0 c-36 0 -65 -3 -65 -6z"/>
<path d="M811 933 c-22 -71 -52 -161 -65 -200 l-25 -73 69 0 69 0 37 118 c21
64 39 122 40 127 1 6 14 43 27 83 l24 72 -68 0 -68 0 -40 -127z"/>
<path d="M1004 888 c-30 -95 -60 -185 -64 -200 l-9 -28 69 0 c69 0 70 0 77 30
4 17 11 30 16 30 4 0 29 0 56 0 47 0 50 -2 56 -30 7 -30 7 -30 75 -30 51 0 68
3 65 13 -54 168 -107 329 -116 355 l-11 32 -79 0 -78 0 -57 -172z m166 -45 c0
-8 -13 -13 -31 -13 -29 0 -30 1 -24 33 4 17 12 50 18 72 l11 39 13 -59 c7 -33
12 -66 13 -72z"/>
<path d="M0 525 l0 -35 675 0 675 0 0 35 0 35 -675 0 -675 0 0 -35z"/>
<path d="M0 320 l0 -120 675 0 675 0 0 120 0 120 -675 0 -675 0 0 -120z"/>
</g>
</svg>
