<?xml version="1.0" encoding="UTF-8"?> <svg xmlns="http://www.w3.org/2000/svg" id="Layer_1" viewBox="0 0 129.21 169.94"><defs><style>.cls-1{fill:#22af61;}.cls-2{fill:#1f4e79;}</style></defs><path class="cls-1" d="M65.7,165.78l-1.02-.42c-.59-.25-14.7-6.11-29.05-14.86-19.92-12.14-30.01-23.56-30.01-33.93V23.73l59.83-12.37,59.57,12.37V116.57c0,27.29-55.91,47.97-58.29,48.84l-1.04,.38ZM11.29,28.35V116.57c0,16.5,38.41,36.29,54.54,43.13,15.85-5.97,53.53-24.18,53.53-43.13V28.34l-53.9-11.2L11.29,28.35Z"></path><path class="cls-2" d="M65.69,166.62l-.78-.32c-2.45-1.01-60.02-25.11-60.02-49.27V22.58l60.54-12.51,60.26,12.51V117.02c0,27.43-56.79,48.43-59.2,49.31l-.79,.29ZM9.24,26.13V117.02c0,17.38,40.06,37.98,56.54,44.92,6.82-2.62,55.56-22.11,55.56-44.92V26.12l-55.91-11.61L9.24,26.13Z"></path><polygon class="cls-1" points="100.25 76.36 93.98 87.49 106.52 87.49 100.25 76.36"></polygon><path class="cls-1" d="M106.79,87.65h-13.08l.13-.23,6.41-11.37,.14,.24,6.41,11.36Zm-12.54-.32h12l-6-10.65-6,10.65Z"></path><path class="cls-1" d="M65.33,119.27c-18.19,0-33.99-13.87-36.75-32.25-.13-.9,.48-1.73,1.38-1.86,.89-.14,1.73,.48,1.86,1.38,2.53,16.8,16.93,29.46,33.51,29.46s30.76-12.25,33.46-29.14c.14-.89,.98-1.5,1.88-1.36,.89,.14,1.5,.98,1.36,1.88-2.96,18.48-18.39,31.9-36.7,31.9Zm33.04-48.73c-.68,0-1.31-.42-1.55-1.1-4.83-13.75-17.66-22.99-31.9-22.99s-26.93,9.15-31.82,22.77c-.31,.85-1.25,1.29-2.1,.99-.85-.31-1.29-1.24-.99-2.1,5.36-14.92,19.39-24.94,34.91-24.94s29.7,10.12,35,25.19c.3,.85-.15,1.79-1,2.09-.18,.06-.36,.09-.54,.09Z"></path><polygon class="cls-1" points="32.91 75.69 39.18 64.56 26.64 64.56 32.91 75.69"></polygon><path class="cls-1" d="M32.91,76.01l-6.54-11.61h13.08l-6.54,11.61Zm-6-11.29l6,10.65,6-10.65h-12Z"></path><path class="cls-2" d="M54.54,77.6v3.87h4.39c.13,.54,.17,1.12,.17,1.71,0,2.52-1.84,5.04-4.83,6.3v4.27h14.79c4.56,0,7.29-3.37,7.29-8.06l-4.13-.63c0,2.48-1.23,4.77-4.21,4.77h-8.91c2.63-1.4,4.17-4.01,4.17-7.16,0-.4-.04-.81-.09-1.21h7.38v-3.87h-8.52c-.75-1.76-1.45-3.42-1.45-5.31,0-2.93,2.15-4.5,4.48-4.5,2.68,0,4.61,1.57,4.65,4.9l4.3-.76c-.18-3.6-2.28-8.01-9.04-8.01-4.87,0-8.69,3.55-8.69,8.37,0,2.11,.66,3.78,1.32,5.31h-3.07Z"></path><path class="cls-2" d="M69.07,94.06h-15.1v-4.78l.19-.08c2.82-1.19,4.64-3.55,4.64-6.02,0-.54-.04-1-.12-1.41h-4.45v-4.48h2.92c-.63-1.51-1.16-3.05-1.16-5,0-4.94,3.87-8.67,9-8.67,8.3,0,9.25,6.35,9.35,8.3v.27l-4.9,.87v-.36c-.04-2.93-1.63-4.6-4.36-4.6-2.01,0-4.17,1.31-4.17,4.2,0,1.77,.64,3.35,1.35,5h8.62v4.48h-7.34c.03,.3,.05,.6,.05,.91,0,2.87-1.23,5.31-3.4,6.85h7.84c3.63,0,3.91-3.42,3.91-4.47v-.35l4.73,.72v.26c0,5-3.05,8.36-7.59,8.36Zm-14.49-.61h14.49c4.16,0,6.88-2.93,6.98-7.49l-3.52-.54c-.11,2.35-1.34,4.72-4.51,4.72h-8.91l-.14-.57c2.55-1.35,4.01-3.86,4.01-6.89,0-.39-.04-.77-.09-1.18l-.04-.34h7.41v-3.26h-8.41l-.08-.19c-.76-1.78-1.47-3.47-1.47-5.43,0-3.3,2.48-4.8,4.78-4.8,2.95,0,4.78,1.8,4.95,4.85l3.69-.66c-.16-2.06-1.31-7.45-8.72-7.45-4.78,0-8.39,3.47-8.39,8.07,0,2.02,.61,3.61,1.29,5.19l.18,.42h-3.23v3.26h4.33l.06,.23c.12,.51,.18,1.09,.18,1.78,0,2.66-1.89,5.19-4.83,6.5v3.77Z"></path></svg> 