<svg width="44" height="30" viewBox="0 0 44 30" fill="none" xmlns="http://www.w3.org/2000/svg">
  <path fill-rule="evenodd" clip-rule="evenodd" d="M39.4167 29.6667H4.58335C2.55844 29.6667 0.916687 28.0249 0.916687 26V4C0.916687 1.97509 2.55844 0.333336 4.58335 0.333336H39.4167C41.4416 0.333336 43.0834 1.97509 43.0834 4V26C43.0834 28.0249 41.4416 29.6667 39.4167 29.6667ZM2.75002 12.25H41.25V8.58333H2.75002V12.25ZM41.25 4C41.25 2.988 40.4287 2.16667 39.4167 2.16667H4.58335C3.57135 2.16667 2.75002 2.988 2.75002 4V6.75H41.25V4ZM41.25 14.0833H2.75002V26C2.75002 27.012 3.57135 27.8333 4.58335 27.8333H39.4167C40.4287 27.8333 41.25 27.012 41.25 26V14.0833ZM23.8334 19.5833H20.1667C19.6598 19.5833 19.25 19.1736 19.25 18.6667C19.25 18.1607 19.6598 17.75 20.1667 17.75H23.8334C24.3403 17.75 24.75 18.1607 24.75 18.6667C24.75 19.1736 24.3403 19.5833 23.8334 19.5833ZM15.5834 19.5833H7.33335C6.82644 19.5833 6.41669 19.1736 6.41669 18.6667C6.41669 18.1607 6.82644 17.75 7.33335 17.75H15.5834C16.0903 17.75 16.5 18.1607 16.5 18.6667C16.5 19.1736 16.0903 19.5833 15.5834 19.5833ZM7.33335 22.3333H12.8334C13.3403 22.3333 13.75 22.744 13.75 23.25C13.75 23.7569 13.3403 24.1667 12.8334 24.1667H7.33335C6.82644 24.1667 6.41669 23.7569 6.41669 23.25C6.41669 22.744 6.82644 22.3333 7.33335 22.3333Z" fill="black"/>
</svg>
