<svg width="296" height="300" viewBox="0 0 296 300" fill="none" xmlns="http://www.w3.org/2000/svg">
<path d="M287.294 181.848C289.427 172.093 290.562 161.967 290.562 151.575C290.562 73.658 227.396 10.491 149.476 10.491C141.25 10.491 133.19 11.202 125.348 12.555C112.739 4.611 97.821 0 81.819 0C36.631 0 0 36.635 0 81.816C0 96.92 4.109 111.056 11.246 123.201C9.375 132.367 8.392 141.854 8.392 151.574C8.392 229.491 71.557 292.658 149.476 292.658C158.302 292.658 166.935 291.841 175.31 290.291C186.828 296.481 199.998 300 213.988 300C259.177 300 295.806 263.369 295.806 218.184C295.806 205.127 292.733 192.797 287.294 181.848ZM221.835 218.998C215.308 228.234 205.665 235.553 193.171 240.747C180.798 245.89 165.966 248.498 149.083 248.498C128.819 248.498 111.83 244.934 98.57 237.9C89.091 232.779 81.274 225.844 75.341 217.287C69.348 208.642 66.308 200.064 66.308 191.793C66.308 186.623 68.288 182.141 72.194 178.473C76.059 174.837 81.012 172.995 86.918 172.995C91.766 172.995 95.947 174.451 99.347 177.323C102.594 180.075 105.381 184.147 107.62 189.406C110.12 195.132 112.846 199.967 115.725 203.775C118.492 207.438 122.473 210.517 127.557 212.92C132.672 215.342 139.567 216.569 148.048 216.569C159.711 216.569 169.274 214.079 176.467 209.167C183.492 204.37 186.908 198.612 186.908 191.563C186.908 185.993 185.125 181.616 181.459 178.181C177.619 174.59 172.555 171.795 166.404 169.878C159.992 167.879 151.287 165.723 140.52 163.469C125.934 160.345 113.535 156.639 103.66 152.45C103.622 152.435 103.583 152.419 103.545 152.402C93.428 148.099 85.274 142.132 79.309 134.666C73.25 127.084 70.18 117.572 70.18 106.391C70.18 95.733 73.403 86.126 79.76 77.839C86.069 69.61 95.283 63.215 107.145 58.827C118.854 54.497 132.782 52.303 148.541 52.303C161.141 52.303 172.219 53.758 181.465 56.633C190.764 59.529 198.604 63.44 204.764 68.252C210.969 73.1 215.584 78.287 218.483 83.674C221.411 89.115 222.895 94.53 222.895 99.768C222.895 104.809 220.948 109.39 217.108 113.383C213.245 117.399 208.37 119.438 202.618 119.438C197.393 119.438 193.304 118.163 190.466 115.649C187.825 113.315 185.087 109.676 182.046 104.44C178.528 97.756 174.271 92.487 169.386 88.774C164.646 85.168 156.72 83.337 145.831 83.337C135.718 83.337 127.493 85.367 121.386 89.371C115.501 93.229 112.642 97.653 112.642 102.894C112.642 106.109 113.562 108.795 115.455 111.107C117.46 113.556 120.288 115.707 123.863 117.495C127.571 119.359 131.392 120.84 135.22 121.897C139.141 122.985 145.72 124.597 154.742 126.681C164.248 128.722 173.101 130.97 181.16 133.376C182.779 133.859 184.379 134.348 185.931 134.844C195.326 137.851 203.445 141.56 210.066 145.866C216.824 150.267 222.175 155.919 225.972 162.666C229.779 169.437 231.708 177.798 231.708 187.51C231.706 199.135 228.384 209.727 221.835 218.998Z" fill="white"/>
</svg>
