<?xml version="1.0" encoding="UTF-8" standalone="no"?>
<!DOCTYPE svg PUBLIC "-//W3C//DTD SVG 1.1//EN" "http://www.w3.org/Graphics/SVG/1.1/DTD/svg11.dtd">
<svg width="100%" height="100%" viewBox="0 0 200 200" version="1.1" xmlns="http://www.w3.org/2000/svg" xmlns:xlink="http://www.w3.org/1999/xlink" xml:space="preserve" xmlns:serif="http://www.serif.com/" style="fill-rule:evenodd;clip-rule:evenodd;stroke-linejoin:round;stroke-miterlimit:2;">
    <path d="M100,195C152.467,195 195,152.467 195,100C195,47.533 152.467,5 100,5C47.533,5 5,47.533 5,100C5,152.467 47.533,195 100,195Z" style="fill:white;fill-rule:nonzero;"/>
    <path d="M60.934,91L63.874,91L63.874,81.2L70.699,81.2L76.334,91L79.659,91L74.199,81.725L71.959,81.725L71.994,81.165C76.894,80.92 79.554,78.785 79.554,74.2C79.554,69.3 76.509,67.2 70.944,67.2L60.934,67.2L60.934,91ZM63.874,78.61L63.874,69.79L70.979,69.79C75.494,69.79 76.544,71.575 76.544,74.2C76.544,76.825 75.494,78.61 70.979,78.61L63.874,78.61ZM91.114,91.35C94.894,91.35 98.184,89.67 99.199,85.89L96.154,85.89C95.349,87.745 93.564,88.76 91.114,88.76C87.754,88.76 85.374,86.66 85.234,82.635L99.34,82.635C99.48,82.075 99.48,81.655 99.48,81.095C99.235,75.53 95.315,73.15 91.08,73.15C86.565,73.15 82.435,75.845 82.435,82.25C82.435,88.655 86.565,91.35 91.115,91.35L91.114,91.35ZM85.444,80.185C86.109,77.245 88.244,75.74 91.079,75.74C93.879,75.74 96.049,77.21 96.504,80.185L85.444,80.185ZM108.69,91.35C111.84,91.35 113.8,90.16 115.13,86.275L115.655,86.275L114.885,88.515L115.76,91L118.735,91L117.65,88.095L117.65,79.415C117.65,74.2 114.08,73.15 110.615,73.15C106.345,73.15 103.825,74.725 103.58,77.98L106.555,77.98C106.765,76.37 108.13,75.775 110.79,75.775C113.205,75.775 114.85,76.195 114.85,78.925C114.85,79.94 114.64,80.22 113.625,80.36L107.535,81.235C104.315,81.69 102.635,83.37 102.635,86.1C102.635,89.46 104.875,91.35 108.69,91.35ZM105.61,86.1C105.61,84.315 106.765,83.72 109.11,83.405L114.85,82.6L114.85,84.385C114.85,86.695 113.31,88.935 109.285,88.935C107.15,88.935 105.61,88.34 105.61,86.1ZM129.999,91.35C133.079,91.35 135.494,89.985 136.859,86.275L137.384,86.275L136.614,88.48L136.614,91L139.414,91L139.414,67.2L136.614,67.2L136.614,76.02L137.384,78.225L136.859,78.225C135.459,74.41 132.939,73.15 129.999,73.15C125.694,73.15 121.809,75.88 121.809,82.25C121.809,88.69 125.764,91.35 129.999,91.35ZM124.784,82.25C124.784,77.98 127.234,75.775 130.699,75.775C134.164,75.775 136.614,77.98 136.614,82.25C136.614,86.52 134.164,88.725 130.699,88.725C127.234,88.725 124.784,86.52 124.784,82.25ZM60.157,133L62.957,133L62.957,122.15C62.957,119.84 64.952,117.775 68.032,117.775C70.972,117.775 71.777,119.665 71.777,122.15L71.777,133L74.577,133L74.577,122.15C74.577,119.84 76.572,117.775 79.652,117.775C82.592,117.775 83.397,119.665 83.397,122.15L83.397,133L86.197,133L86.197,121.45C86.197,117.25 83.642,115.15 80.527,115.15C78.042,115.15 75.382,116.48 74.227,120.225L73.667,120.225L74.157,118.755C73.457,116.375 71.427,115.15 68.907,115.15C66.387,115.15 64.042,116.305 62.677,120.225L62.152,120.225L62.922,117.985L62.922,115.5L60.157,115.5L60.157,133ZM99.307,133.35C104.032,133.35 108.267,130.515 108.267,124.25C108.267,117.985 104.032,115.15 99.307,115.15C94.582,115.15 90.347,117.985 90.347,124.25C90.347,130.515 94.582,133.35 99.307,133.35ZM93.322,124.25C93.322,120.12 95.737,117.775 99.307,117.775C102.877,117.775 105.292,120.12 105.292,124.25C105.292,128.38 102.877,130.725 99.307,130.725C95.737,130.725 93.322,128.38 93.322,124.25ZM112.452,133L115.252,133L115.252,122.605C115.252,120.96 116.057,118.125 119.907,118.125L121.727,118.125L121.727,115.15L120.747,115.15C118.367,115.15 116.757,115.605 114.937,120.225L114.447,120.225L115.217,117.985L115.217,115.5L112.452,115.5L112.452,133ZM132.523,133.35C136.303,133.35 139.593,131.67 140.608,127.89L137.563,127.89C136.758,129.745 134.973,130.76 132.523,130.76C129.163,130.76 126.783,128.66 126.643,124.635L140.748,124.635C140.888,124.075 140.888,123.655 140.888,123.095C140.643,117.53 136.723,115.15 132.488,115.15C127.973,115.15 123.843,117.845 123.843,124.25C123.843,130.655 127.973,133.35 132.523,133.35ZM126.853,122.185C127.518,119.245 129.653,117.74 132.488,117.74C135.288,117.74 137.458,119.21 137.913,122.185L126.853,122.185Z" style="fill-rule:nonzero;"/>
</svg>
